
<region>
sample=../Samples/vowel_transition/a/vowel_a_db3_fromd3.wav
lokey=48
hikey=48
sw_previous=49
pitch_keycenter=49

<region>
sample=../Samples/vowel_transition/a/vowel_a_db3_fromeb3.wav
lokey=48
hikey=48
sw_previous=50
pitch_keycenter=49

<region>
sample=../Samples/vowel_transition/a/vowel_a_db3_frome3.wav
lokey=48
hikey=48
sw_previous=51
pitch_keycenter=49

<region>
sample=../Samples/vowel_transition/a/vowel_a_db3_fromf3.wav
lokey=48
hikey=48
sw_previous=52
pitch_keycenter=49

<region>
sample=../Samples/vowel_transition/a/vowel_a_db3_fromgb3.wav
lokey=48
hikey=48
sw_previous=53
pitch_keycenter=49

<region>
sample=../Samples/vowel_transition/a/vowel_a_db3_fromg3.wav
lokey=48
hikey=48
sw_previous=54
pitch_keycenter=49

<region>
sample=../Samples/vowel_transition/a/vowel_a_db3_fromab3.wav
lokey=48
hikey=48
sw_previous=55
pitch_keycenter=49

<region>
sample=../Samples/vowel_transition/a/vowel_a_db3_froma3.wav
lokey=48
hikey=48
sw_previous=56
pitch_keycenter=49

<region>
sample=../Samples/vowel_transition/a/vowel_a_db3_frombb3.wav
lokey=48
hikey=48
sw_previous=57
pitch_keycenter=49

<region>
sample=../Samples/vowel_transition/a/vowel_a_db3_fromb3.wav
lokey=48
hikey=48
sw_previous=58
pitch_keycenter=49

<region>
sample=../Samples/vowel_transition/a/vowel_a_db3_fromc4.wav
lokey=48
hikey=48
sw_previous=59
pitch_keycenter=49

<region>
sample=../Samples/vowel_transition/a/vowel_a_db3_fromdb4.wav
lokey=48
hikey=48
sw_previous=60
pitch_keycenter=49

<region>
sample=../Samples/vowel_transition/a/vowel_a_db3_fromdb4.wav
lokey=48
hikey=48
sw_previous=61
pitch_keycenter=49

<region>
sample=../Samples/vowel_transition/a/vowel_a_db3_fromdb4.wav
lokey=48
hikey=48
sw_previous=62
pitch_keycenter=49

<region>
sample=../Samples/vowel_transition/a/vowel_a_db3_fromdb4.wav
lokey=48
hikey=48
sw_previous=63
pitch_keycenter=49

<region>
sample=../Samples/vowel_transition/a/vowel_a_db3_fromdb4.wav
lokey=48
hikey=48
sw_previous=64
pitch_keycenter=49

<region>
sample=../Samples/vowel_transition/a/vowel_a_db3_fromdb4.wav
lokey=48
hikey=48
sw_previous=65
pitch_keycenter=49

<region>
sample=../Samples/vowel_transition/a/vowel_a_db3_fromdb4.wav
lokey=48
hikey=48
sw_previous=66
pitch_keycenter=49

<region>
sample=../Samples/vowel_transition/a/vowel_a_db3_fromdb4.wav
lokey=48
hikey=48
sw_previous=67
pitch_keycenter=49

<region>
sample=../Samples/vowel_transition/a/vowel_a_db3_fromdb4.wav
lokey=48
hikey=48
sw_previous=68
pitch_keycenter=49

<region>
sample=../Samples/vowel_transition/a/vowel_a_db3_fromdb4.wav
lokey=48
hikey=48
sw_previous=69
pitch_keycenter=49

<region>
sample=../Samples/vowel_transition/a/vowel_a_db3_fromdb4.wav
lokey=48
hikey=48
sw_previous=70
pitch_keycenter=49

<region>
sample=../Samples/vowel_transition/a/vowel_a_d3_fromdb3.wav
lokey=49
hikey=49
sw_previous=48
pitch_keycenter=50

<region>
sample=../Samples/vowel_transition/a/vowel_a_d3_fromeb3.wav
lokey=49
hikey=49
sw_previous=50
pitch_keycenter=50

<region>
sample=../Samples/vowel_transition/a/vowel_a_d3_frome3.wav
lokey=49
hikey=49
sw_previous=51
pitch_keycenter=50

<region>
sample=../Samples/vowel_transition/a/vowel_a_d3_fromf3.wav
lokey=49
hikey=49
sw_previous=52
pitch_keycenter=50

<region>
sample=../Samples/vowel_transition/a/vowel_a_d3_fromgb3.wav
lokey=49
hikey=49
sw_previous=53
pitch_keycenter=50

<region>
sample=../Samples/vowel_transition/a/vowel_a_d3_fromg3.wav
lokey=49
hikey=49
sw_previous=54
pitch_keycenter=50

<region>
sample=../Samples/vowel_transition/a/vowel_a_d3_fromab3.wav
lokey=49
hikey=49
sw_previous=55
pitch_keycenter=50

<region>
sample=../Samples/vowel_transition/a/vowel_a_d3_froma3.wav
lokey=49
hikey=49
sw_previous=56
pitch_keycenter=50

<region>
sample=../Samples/vowel_transition/a/vowel_a_d3_frombb3.wav
lokey=49
hikey=49
sw_previous=57
pitch_keycenter=50

<region>
sample=../Samples/vowel_transition/a/vowel_a_d3_fromb3.wav
lokey=49
hikey=49
sw_previous=58
pitch_keycenter=50

<region>
sample=../Samples/vowel_transition/a/vowel_a_d3_fromc4.wav
lokey=49
hikey=49
sw_previous=59
pitch_keycenter=50

<region>
sample=../Samples/vowel_transition/a/vowel_a_d3_fromdb4.wav
lokey=49
hikey=49
sw_previous=60
pitch_keycenter=50

<region>
sample=../Samples/vowel_transition/a/vowel_a_d3_fromd4.wav
lokey=49
hikey=49
sw_previous=61
pitch_keycenter=50

<region>
sample=../Samples/vowel_transition/a/vowel_a_d3_fromd4.wav
lokey=49
hikey=49
sw_previous=62
pitch_keycenter=50

<region>
sample=../Samples/vowel_transition/a/vowel_a_d3_fromd4.wav
lokey=49
hikey=49
sw_previous=63
pitch_keycenter=50

<region>
sample=../Samples/vowel_transition/a/vowel_a_d3_fromd4.wav
lokey=49
hikey=49
sw_previous=64
pitch_keycenter=50

<region>
sample=../Samples/vowel_transition/a/vowel_a_d3_fromd4.wav
lokey=49
hikey=49
sw_previous=65
pitch_keycenter=50

<region>
sample=../Samples/vowel_transition/a/vowel_a_d3_fromd4.wav
lokey=49
hikey=49
sw_previous=66
pitch_keycenter=50

<region>
sample=../Samples/vowel_transition/a/vowel_a_d3_fromd4.wav
lokey=49
hikey=49
sw_previous=67
pitch_keycenter=50

<region>
sample=../Samples/vowel_transition/a/vowel_a_d3_fromd4.wav
lokey=49
hikey=49
sw_previous=68
pitch_keycenter=50

<region>
sample=../Samples/vowel_transition/a/vowel_a_d3_fromd4.wav
lokey=49
hikey=49
sw_previous=69
pitch_keycenter=50

<region>
sample=../Samples/vowel_transition/a/vowel_a_d3_fromd4.wav
lokey=49
hikey=49
sw_previous=70
pitch_keycenter=50

<region>
sample=../Samples/vowel_transition/a/vowel_a_eb3_fromdb3.wav
lokey=50
hikey=50
sw_previous=48
pitch_keycenter=51

<region>
sample=../Samples/vowel_transition/a/vowel_a_eb3_fromd3.wav
lokey=50
hikey=50
sw_previous=49
pitch_keycenter=51

<region>
sample=../Samples/vowel_transition/a/vowel_a_e3_fromdb3.wav
lokey=51
hikey=51
sw_previous=48
pitch_keycenter=52

<region>
sample=../Samples/vowel_transition/a/vowel_a_e3_fromd3.wav
lokey=51
hikey=51
sw_previous=49
pitch_keycenter=52

<region>
sample=../Samples/vowel_transition/a/vowel_a_f3_fromdb3.wav
lokey=52
hikey=52
sw_previous=48
pitch_keycenter=53

<region>
sample=../Samples/vowel_transition/a/vowel_a_f3_fromd3.wav
lokey=52
hikey=52
sw_previous=49
pitch_keycenter=53

<region>
sample=../Samples/vowel_transition/a/vowel_a_gb3_fromdb3.wav
lokey=53
hikey=53
sw_previous=48
pitch_keycenter=54

<region>
sample=../Samples/vowel_transition/a/vowel_a_gb3_fromd3.wav
lokey=53
hikey=53
sw_previous=49
pitch_keycenter=54

<region>
sample=../Samples/vowel_transition/a/vowel_a_g3_fromdb3.wav
lokey=54
hikey=54
sw_previous=48
pitch_keycenter=55

<region>
sample=../Samples/vowel_transition/a/vowel_a_g3_fromd3.wav
lokey=54
hikey=54
sw_previous=49
pitch_keycenter=55

<region>
sample=../Samples/vowel_transition/a/vowel_a_ab3_fromdb3.wav
lokey=55
hikey=55
sw_previous=48
pitch_keycenter=56

<region>
sample=../Samples/vowel_transition/a/vowel_a_ab3_fromd3.wav
lokey=55
hikey=55
sw_previous=49
pitch_keycenter=56

<region>
sample=../Samples/vowel_transition/a/vowel_a_a3_fromdb3.wav
lokey=56
hikey=56
sw_previous=48
pitch_keycenter=57

<region>
sample=../Samples/vowel_transition/a/vowel_a_a3_fromd3.wav
lokey=56
hikey=56
sw_previous=49
pitch_keycenter=57

<region>
sample=../Samples/vowel_transition/a/vowel_a_bb3_fromdb3.wav
lokey=57
hikey=57
sw_previous=48
pitch_keycenter=58

<region>
sample=../Samples/vowel_transition/a/vowel_a_bb3_fromd3.wav
lokey=57
hikey=57
sw_previous=49
pitch_keycenter=58

<region>
sample=../Samples/vowel_transition/a/vowel_a_b3_fromdb3.wav
lokey=58
hikey=58
sw_previous=48
pitch_keycenter=59

<region>
sample=../Samples/vowel_transition/a/vowel_a_b3_fromd3.wav
lokey=58
hikey=58
sw_previous=49
pitch_keycenter=59

<region>
sample=../Samples/vowel_transition/a/vowel_a_c4_fromdb3.wav
lokey=59
hikey=59
sw_previous=48

<region>
sample=../Samples/vowel_transition/a/vowel_a_c4_fromd3.wav
lokey=59
hikey=59
sw_previous=49

<region>
sample=../Samples/vowel_transition/a/vowel_a_db4_fromdb3.wav
lokey=60
hikey=60
sw_previous=48
pitch_keycenter=61

<region>
sample=../Samples/vowel_transition/a/vowel_a_db4_fromd3.wav
lokey=60
hikey=60
sw_previous=49
pitch_keycenter=61

<region>
sample=../Samples/vowel_transition/a/vowel_a_d4_fromd3.wav
lokey=61
hikey=61
sw_previous=48
pitch_keycenter=62

<region>
sample=../Samples/vowel_transition/a/vowel_a_d4_fromd3.wav
lokey=61
hikey=61
sw_previous=49
pitch_keycenter=62

<region>
sample=../Samples/vowel_transition/a/vowel_a_eb4_fromeb3.wav
lokey=62
hikey=62
sw_previous=48
pitch_keycenter=63

<region>
sample=../Samples/vowel_transition/a/vowel_a_eb4_fromeb3.wav
lokey=62
hikey=62
sw_previous=49
pitch_keycenter=63

<region>
sample=../Samples/vowel_transition/a/vowel_a_e4_frome3.wav
lokey=63
hikey=63
sw_previous=48
pitch_keycenter=64

<region>
sample=../Samples/vowel_transition/a/vowel_a_e4_frome3.wav
lokey=63
hikey=63
sw_previous=49
pitch_keycenter=64

<region>
sample=../Samples/vowel_transition/a/vowel_a_f4_fromf3.wav
lokey=64
hikey=64
sw_previous=48
pitch_keycenter=65

<region>
sample=../Samples/vowel_transition/a/vowel_a_f4_fromf3.wav
lokey=64
hikey=64
sw_previous=49
pitch_keycenter=65

<region>
sample=../Samples/vowel_transition/a/vowel_a_gb4_fromgb3.wav
lokey=65
hikey=65
sw_previous=48
pitch_keycenter=66

<region>
sample=../Samples/vowel_transition/a/vowel_a_gb4_fromgb3.wav
lokey=65
hikey=65
sw_previous=49
pitch_keycenter=66

<region>
sample=../Samples/vowel_transition/a/vowel_a_g4_fromg3.wav
lokey=66
hikey=66
sw_previous=48
pitch_keycenter=67

<region>
sample=../Samples/vowel_transition/a/vowel_a_g4_fromg3.wav
lokey=66
hikey=66
sw_previous=49
pitch_keycenter=67

<region>
sample=../Samples/vowel_transition/a/vowel_a_ab4_fromab3.wav
lokey=67
hikey=67
sw_previous=48
pitch_keycenter=68

<region>
sample=../Samples/vowel_transition/a/vowel_a_ab4_fromab3.wav
lokey=67
hikey=67
sw_previous=49
pitch_keycenter=68

<region>
sample=../Samples/vowel_transition/a/vowel_a_a4_froma3.wav
lokey=68
hikey=68
sw_previous=48
pitch_keycenter=69

<region>
sample=../Samples/vowel_transition/a/vowel_a_a4_froma3.wav
lokey=68
hikey=68
sw_previous=49
pitch_keycenter=69

<region>
sample=../Samples/vowel_transition/a/vowel_a_bb4_frombb3.wav
lokey=69
hikey=69
sw_previous=48
pitch_keycenter=70

<region>
sample=../Samples/vowel_transition/a/vowel_a_bb4_frombb3.wav
lokey=69
hikey=69
sw_previous=49
pitch_keycenter=70

<region>
sample=../Samples/vowel_transition/a/vowel_a_ab4_fromab3.wav
lokey=70
hikey=70
sw_previous=48
pitch_keycenter=68

<region>
sample=../Samples/vowel_transition/a/vowel_a_ab4_fromab3.wav
lokey=70
hikey=70
sw_previous=49
pitch_keycenter=68
